<svg width="93" height="12" viewBox="0 0 93 12" fill="none" xmlns="http://www.w3.org/2000/svg">
<path d="M0 0.0290554C0.268157 1.07493 1.17368 2.14392 2.41605 2.41175H6.1709L6.36245 2.48738V11.9624H8.70716V2.48738L8.92017 2.41175H12.6783C13.9346 2.08811 14.8206 1.07493 15.0841 0.0290554V0.00593606H0V0.0290554Z" fill="black"/>
<path d="M23.2064 11.9891H32.1266C33.3677 11.7424 34.29 10.649 34.5486 9.59056H20.7845C21.0414 10.6493 21.9773 11.7424 23.2064 11.9891Z" fill="black"/>
<path d="M23.2064 7.12893H32.1266C33.3677 6.88422 34.29 5.79046 34.5486 4.73071H20.7845C21.0414 5.79079 21.9773 6.88422 23.2064 7.12893Z" fill="black"/>
<path d="M23.2064 2.3992H32.1266C33.3677 2.15185 34.29 1.05909 34.5486 0H20.7845C21.0414 1.05909 21.9773 2.15185 23.2064 2.3992Z" fill="black"/>
<path d="M43.5504 2.37642H51.7912C53.0336 2.01546 54.0768 1.06899 54.3311 0.0198137H41.2403V7.09194H51.9547V9.57372L43.5504 9.58032C42.2333 9.94755 41.1165 10.8319 40.5593 12L41.2403 11.9875H54.2568V4.74062H43.5504V2.37642Z" fill="black"/>
<path d="M71.5948 11.9904C72.7649 11.4944 73.3943 10.6364 73.6354 9.6325H63.2272L63.2338 0.0165081L60.9006 0.0231093V11.9904H71.5948Z" fill="black"/>
<path d="M80.6851 2.40878H89.6082C90.8476 2.16242 91.7694 1.06866 92.0293 0.0105619H78.2644C78.5217 1.06899 79.4569 2.16242 80.6851 2.40878Z" fill="black"/>
<path d="M91.7086 11.9858L91.7086 4.74954L89.388 4.74954L89.388 9.56744L80.942 9.56744L80.942 4.74954L78.6231 4.74954L78.6231 11.9733L91.7086 11.9858Z" fill="black"/>
</svg>
