<svg width="99" height="10" viewBox="0 0 99 10" fill="none" xmlns="http://www.w3.org/2000/svg">
<path d="M5 10V2H2C1.4375 2 0.963542 1.80729 0.578125 1.42188C0.192708 1.02604 0 0.552083 0 0H12C12 0.5625 11.8021 1.03646 11.4062 1.42188C11.0104 1.80729 10.5417 2 10 2H7V10H5ZM23.68 10C23.1175 10 22.6435 9.80729 22.2581 9.42188C21.8727 9.02604 21.68 8.55208 21.68 8H33.68C33.68 8.5625 33.4821 9.03646 33.0863 9.42188C32.6904 9.80729 32.2217 10 31.68 10H23.68ZM23.68 6C23.1175 6 22.6435 5.80729 22.2581 5.42188C21.8727 5.02604 21.68 4.55208 21.68 4H33.68C33.68 4.5625 33.4821 5.03646 33.0863 5.42188C32.6904 5.80729 32.2217 6 31.68 6H23.68ZM23.68 2C23.1175 2 22.6435 1.80729 22.2581 1.42188C21.8727 1.02604 21.68 0.552083 21.68 0H33.68C33.68 0.5625 33.4821 1.03646 33.0863 1.42188C32.6904 1.80729 32.2217 2 31.68 2H23.68ZM43.36 10C43.36 9.44792 43.5527 8.97917 43.9381 8.59375C44.334 8.19792 44.8079 8 45.36 8H53.36V6H43.36V0H55.36C55.36 0.5625 55.1621 1.03646 54.7663 1.42188C54.3704 1.80729 53.9017 2 53.36 2H45.36V4H55.36V10H43.36ZM65.04 10V0H67.04V8H77.04C77.04 8.5625 76.8421 9.03646 76.4463 9.42188C76.0504 9.80729 75.5817 10 75.04 10H65.04ZM86.72 10V4H88.72V8H96.72V4H98.72V10H86.72ZM88.72 2C88.1575 2 87.6835 1.80729 87.2981 1.42188C86.9127 1.02604 86.72 0.552083 86.72 0H98.72C98.72 0.5625 98.5221 1.03646 98.1263 1.42188C97.7304 1.80729 97.2617 2 96.72 2H88.72Z" fill="black"/>
</svg>
